<?xml version="1.0" standalone="no"?><!DOCTYPE svg PUBLIC "-//W3C//DTD SVG 1.1//EN" "http://www.w3.org/Graphics/SVG/1.1/DTD/svg11.dtd"><svg t="1637725565509" class="icon" viewBox="0 0 1024 1024" version="1.1" xmlns="http://www.w3.org/2000/svg" p-id="4779" xmlns:xlink="http://www.w3.org/1999/xlink" width="32" height="32"><defs><style type="text/css"></style></defs><path d="M491.1 390c11.1-11.1 10.9-29.4-0.5-40.7L447.3 306c-8.8 20.4-15 41.2-18.6 61.9l21.7 21.7c11.4 11.3 29.6 11.5 40.7 0.4zM593.5 333.7l32.8 32.8c37.9 37.9 38.6 98.6 1.6 135.6l-4.7 4.7 79.7 72.2c37.2-14.8 73.3-37.8 104.8-69.6C909 407 925 256.9 843.4 174.3c-81.6-82.6-229.8-66.4-331.1 36.1-7.1 7.2-13.4 14.8-19.6 22.4l77.8 77.8 23 23.1zM503.9 626.2c-37 37-97.7 36.3-135.6-1.6l-35.1-35.1-14.8-14.8-156.9 143.9c-43.2 39.6-44.9 107.8-3.6 149.6 41.2 41.7 108.6 40.1 147.8-3.7L516 629.6l-7.4-8.1-4.7 4.7z" fill="#1B9DCC" p-id="4780"></path><path d="M428.7 367.8L286.9 226c-15.5-15.5-40.5-19.9-57.6-7-20.9 15.6-22.1 45.7-3.9 63.9l165.8 165.8c11.4 11.4 11.6 29.6 0.5 40.7-11.1 11.1-29.4 10.9-40.7-0.5L187.4 325.4c-15.5-15.5-40.5-19.9-57.6-7-20.9 15.6-22.1 45.7-3.9 63.9l186.5 186.5 6 6 114.4-104.9c-9.3-31.9-10.4-66.8-4.1-102.1zM878.1 738L702.9 579.1c-51.4 20.4-104.8 24.7-151.4 10.8L516 629.6l223.7 246.8c37.6 41.5 102.3 43.1 141.9 3.5 39.6-39.6 38-104.3-3.5-141.9zM384 124.2c-18.2-18.2-48.3-17-63.9 3.9-12.8 17.2-8.5 42.1 7 57.6l120.2 120.2c11-25.5 26.4-50.1 45.3-73.1L384 124.2z" fill="#E85167" p-id="4781"></path><path d="M702.9 579.1l-79.7-72.2 4.7-4.7c37-37 36.3-97.7-1.6-135.6l-32.8-32.8-23.1-23.1-77.8-77.8c-18.9 23-34.3 47.6-45.3 73.1l43.3 43.3c11.4 11.4 11.6 29.6 0.5 40.7-11.1 11.1-29.4 10.9-40.7-0.5l-21.7-21.7c-6.3 35.3-5.2 70.2 4 102L318.4 574.7l14.8 14.8 35.1 35.1c37.9 37.9 98.6 38.6 135.6 1.6l4.7-4.7 7.4 8.1 35.5-39.7c46.6 13.9 100.1 9.6 151.4-10.8z" fill="#85348A" p-id="4782"></path></svg>