<?xml version="1.0" standalone="no"?><!DOCTYPE svg PUBLIC "-//W3C//DTD SVG 1.1//EN" "http://www.w3.org/Graphics/SVG/1.1/DTD/svg11.dtd"><svg t="1638461545650" class="icon" viewBox="0 0 1024 1024" version="1.1" xmlns="http://www.w3.org/2000/svg" p-id="16602" xmlns:xlink="http://www.w3.org/1999/xlink" width="200" height="200"><defs><style type="text/css"></style></defs><path d="M295.343158 939.250526v25.734737h-15.629474v-67.368421h25.734737A28.429474 28.429474 0 0 1 323.368421 902.736842a17.515789 17.515789 0 0 1 6.871579 14.686316 14.821053 14.821053 0 0 1-2.694737 8.892631 20.210526 20.210526 0 0 1-8.08421 6.197895 15.225263 15.225263 0 0 1 8.892631 5.793684 18.189474 18.189474 0 0 1 2.694737 10.105264v4.311579a33.28 33.28 0 0 0 0.673684 5.928421 7.814737 7.814737 0 0 0 2.829474 4.850526v0.943158h-15.494737a7.68 7.68 0 0 1-2.425263-5.12 42.172632 42.172632 0 0 1-0.673684-6.736842v-4.042106a9.835789 9.835789 0 0 0-2.425263-7.275789 10.105263 10.105263 0 0 0-7.545264-2.56z m0-11.991579h10.24a10.24 10.24 0 0 0 7.141053-2.155789 7.545263 7.545263 0 0 0 2.56-6.197895 8.892632 8.892632 0 0 0-2.56-6.602105 10.374737 10.374737 0 0 0-7.27579-2.425263h-10.105263zM383.865263 936.286316h-26.273684v16.707368h30.989474v11.991579h-46.618948v-67.368421h46.753684v11.991579h-31.12421v14.686316h26.273684zM411.216842 952.993684h28.968421v11.991579h-44.597895v-67.368421h15.629474zM483.166316 951.915789h-21.153684l-3.637895 13.473685h-15.764211l21.692632-67.368421h16.707368l21.692632 67.368421h-15.629474z m-17.650527-11.991578h14.282106L472.791579 916.210526zM532.075789 920.522105l11.048422-22.635789h17.92l-19.267369 33.28 20.749474 33.818947h-18.863158l-11.452632-23.174737-11.452631 23.174737h-17.92l19.671579-33.818947-19.132632-33.28h17.785263zM603.351579 951.915789h-21.153684l-3.772632 13.473685h-15.76421l21.692631-67.368421h16.707369l21.692631 67.368421h-15.629473z m-17.785263-11.991578h14.282105L592.842105 916.210526zM670.181053 909.877895h-17.650527v55.107368h-15.629473v-55.107368H619.789474v-11.991579h50.795789zM693.086316 964.985263h-15.494737v-67.368421h15.494737zM760.050526 937.364211a27.890526 27.890526 0 0 1-7.814737 20.48 26.947368 26.947368 0 0 1-20.48 8.08421 26.947368 26.947368 0 0 1-28.56421-28.56421v-11.991579a28.429474 28.429474 0 1 1 56.858947 0z m-15.494737-12.126316a19.132632 19.132632 0 0 0-3.503157-11.722106 11.048421 11.048421 0 0 0-9.566316-4.581052 10.913684 10.913684 0 0 0-9.566316 4.581052 18.593684 18.593684 0 0 0-3.368421 11.722106v12.126316a19.671579 19.671579 0 0 0 3.368421 11.991578 11.587368 11.587368 0 0 0 9.701053 4.581053 11.183158 11.183158 0 0 0 9.431579-4.581053 19.671579 19.671579 0 0 0 3.368421-11.991578zM825.128421 964.985263h-15.629474l-24.522105-42.846316v42.711579h-15.898947v-67.368421h15.629473l24.522106 42.711579v-42.307368h15.629473z" fill="#3F4A5A" p-id="16603"></path><path d="M229.052632 323.368421h188.631579V134.736842a188.631579 188.631579 0 0 0-188.631579 188.631579z" fill="#9DE8F7" p-id="16604"></path><path d="M417.684211 134.736842v188.631579h188.631578a188.631579 188.631579 0 0 0-188.631578-188.631579zM323.368421 323.368421h94.31579V134.736842c-52.008421 0-94.315789 84.48-94.31579 188.631579z" fill="#43D3E8" p-id="16605"></path><path d="M417.684211 134.736842v188.631579h94.315789c0-104.151579-42.307368-188.631579-94.315789-188.631579z" fill="#9DE8F7" p-id="16606"></path><path d="M229.052632 633.263158h646.736842v80.842105H229.052632z" fill="#F8C963" p-id="16607"></path><path d="M754.526316 323.368421m-121.263158 0a121.263158 121.263158 0 1 0 242.526316 0 121.263158 121.263158 0 1 0-242.526316 0Z" fill="#E66847" p-id="16608"></path></svg>