<?xml version="1.0" standalone="no"?><!DOCTYPE svg PUBLIC "-//W3C//DTD SVG 1.1//EN" "http://www.w3.org/Graphics/SVG/1.1/DTD/svg11.dtd"><svg t="1651049151061" class="icon" viewBox="0 0 1024 1024" version="1.1" xmlns="http://www.w3.org/2000/svg" p-id="9436" xmlns:xlink="http://www.w3.org/1999/xlink" width="32" height="32"><defs><style type="text/css">@font-face { font-family: feedback-iconfont; src: url("//at.alicdn.com/t/font_1031158_u69w8yhxdu.woff2?t=1630033759944") format("woff2"), url("//at.alicdn.com/t/font_1031158_u69w8yhxdu.woff?t=1630033759944") format("woff"), url("//at.alicdn.com/t/font_1031158_u69w8yhxdu.ttf?t=1630033759944") format("truetype"); }
</style></defs><path d="M512.43 886.5l-99.11-55.19A74.36 74.36 0 0 1 374 765.14V450.81a15.56 15.56 0 0 0-6-11.92L139 255.33l-2.48-3c-21.4-21.32-26.4-53.19-14.44-81a73.32 73.32 0 0 1 68.65-44.86h618.09A75.92 75.92 0 0 1 878 171.3a74 74 0 0 1-13.41 81.08l-3 3-232.07 185.48a15.93 15.93 0 0 0-5.46 12v367.05c0.51 42.29-33.37 75.57-75.19 75.57a76.9 76.9 0 0 1-36.44-9zM178.24 210.6l228.12 182.07a75.2 75.2 0 0 1 28.37 58.66v314.32c0 5.51 2.47 11 7.47 13.46l99.11 54.21a17 17 0 0 0 15.42 0 15.63 15.63 0 0 0 7.48-13.41V453.33a74.82 74.82 0 0 1 27.89-58.69l228.59-184a15.36 15.36 0 0 0 1.5-15.93 15 15 0 0 0-13.46-8.46h-618a14.17 14.17 0 0 0-13.45 8.46 15.15 15.15 0 0 0 1 15.93v-0.08z" fill="#1E7FFE" p-id="9437"></path><path d="M860 576.54H697.43a29.34 29.34 0 0 1-28.58-29.82c0-16.44 12.86-29.81 28.62-29.81H860c15.68 0 28.58 13.37 28.58 29.81A28.7 28.7 0 0 1 860 576.54zM860 691.16H697.43a29.35 29.35 0 0 1-28.58-29.82c0-16.49 12.86-29.9 28.62-29.9H860c15.68 0 28.58 13.45 28.58 29.9A28.85 28.85 0 0 1 860 691.16zM860 805.77H697.43a29.34 29.34 0 0 1-28.58-29.9c0-16.32 12.86-29.77 28.62-29.77H860c15.68 0 28.58 13.45 28.58 29.82A29 29 0 0 1 860 805.77z" fill="#F4B426" p-id="9438"></path></svg>