<?xml version="1.0" standalone="no"?><!DOCTYPE svg PUBLIC "-//W3C//DTD SVG 1.1//EN" "http://www.w3.org/Graphics/SVG/1.1/DTD/svg11.dtd"><svg t="1650708700391" class="icon" viewBox="0 0 1024 1024" version="1.1" xmlns="http://www.w3.org/2000/svg" p-id="1599" xmlns:xlink="http://www.w3.org/1999/xlink" width="32" height="32"><defs><style type="text/css">@font-face { font-family: feedback-iconfont; src: url("//at.alicdn.com/t/font_1031158_u69w8yhxdu.woff2?t=1630033759944") format("woff2"), url("//at.alicdn.com/t/font_1031158_u69w8yhxdu.woff?t=1630033759944") format("woff"), url("//at.alicdn.com/t/font_1031158_u69w8yhxdu.ttf?t=1630033759944") format("truetype"); }
</style></defs><path d="M512 85.333333c234.666667 0 426.666667 189.866667 426.666667 426.666667 0 234.666667-192 426.666667-426.666667 426.666667-228.266667 0-416-179.2-426.666667-405.333334H27.733333c-4.266667 0-6.4-2.133333-6.4-6.4v-32c0-2.133333 2.133333-6.4 6.4-6.4H85.333333C96 264.533333 283.733333 85.333333 512 85.333333z m0 42.666667C311.466667 128 140.8 292.266667 128 490.666667h55.466667c4.266667 0 6.4 2.133333 6.4 6.4v32c0 2.133333-2.133333 6.4-6.4 6.4H128c10.666667 198.4 181.333333 362.666667 384 362.666666 209.066667 0 384-174.933333 384-384S721.066667 128 512 128z m0 219.733333c89.6 0 162.133333 74.666667 162.133333 164.266667s-72.533333 162.133333-162.133333 162.133333c-89.6 0-164.266667-72.533333-164.266667-162.133333s74.666667-164.266667 164.266667-164.266667z m0 46.933334c-64 0-115.2 53.333333-115.2 115.2s51.2 115.2 115.2 115.2c64 0 115.2-53.333333 115.2-115.2S576 394.666667 512 394.666667zM838.4 490.666667h155.733333c4.266667 0 6.4 2.133333 6.4 6.4v32c0 2.133333-2.133333 6.4-6.4 6.4h-155.733333c-4.266667 0-6.4-2.133333-6.4-6.4v-32c0-4.266667 2.133333-6.4 6.4-6.4zM533.333333 27.733333v155.733334c0 4.266667-2.133333 6.4-6.4 6.4h-32c-2.133333 0-6.4-2.133333-6.4-6.4V27.733333c0-4.266667 2.133333-6.4 6.4-6.4h32c4.266667 0 6.4 2.133333 6.4 6.4z m0 810.666667v155.733333c0 4.266667-2.133333 6.4-6.4 6.4h-32c-2.133333 0-6.4-2.133333-6.4-6.4v-155.733333c0-4.266667 2.133333-6.4 6.4-6.4h32c4.266667 0 6.4 2.133333 6.4 6.4z" fill="#FE5669" p-id="1600"></path></svg>