<?xml version="1.0" standalone="no"?><!DOCTYPE svg PUBLIC "-//W3C//DTD SVG 1.1//EN" "http://www.w3.org/Graphics/SVG/1.1/DTD/svg11.dtd"><svg t="1639994963988" class="icon" viewBox="0 0 1024 1024" version="1.1" xmlns="http://www.w3.org/2000/svg" p-id="1253" xmlns:xlink="http://www.w3.org/1999/xlink" width="200" height="200"><defs><style type="text/css"></style></defs><path d="M146.285714 950.857143h731.428572v73.142857H146.285714z" fill="#A0C2F9" p-id="1254"></path><path d="M146.285714 804.571429L73.142857 512l292.132572 73.142857L512 219.428571l143.140571 365.714286L950.857143 512l-73.142857 292.571429v73.142857H146.285714v-73.142857z" fill="#4185F4" p-id="1255"></path><path d="M512 73.142857m-73.142857 0a73.142857 73.142857 0 1 0 146.285714 0 73.142857 73.142857 0 1 0-146.285714 0Z" fill="#A0C2F9" p-id="1256"></path><path d="M950.857143 365.714286m-73.142857 0a73.142857 73.142857 0 1 0 146.285714 0 73.142857 73.142857 0 1 0-146.285714 0Z" fill="#A0C2F9" p-id="1257"></path><path d="M73.142857 365.714286m-73.142857 0a73.142857 73.142857 0 1 0 146.285714 0 73.142857 73.142857 0 1 0-146.285714 0Z" fill="#A0C2F9" p-id="1258"></path></svg>