<?xml version="1.0" standalone="no"?><!DOCTYPE svg PUBLIC "-//W3C//DTD SVG 1.1//EN" "http://www.w3.org/Graphics/SVG/1.1/DTD/svg11.dtd"><svg t="1625903773672" class="icon" viewBox="0 0 1024 1024" version="1.1" xmlns="http://www.w3.org/2000/svg" p-id="1348" width="32" height="32" xmlns:xlink="http://www.w3.org/1999/xlink"><defs><style type="text/css"></style></defs><path d="M247.54 459.32a53.78 53.78 0 0 1 53.78 53.78V854H193.74V513.1a53.78 53.78 0 0 1 53.8-53.78zM417.38 528.96a53.78 53.78 0 0 1 53.78 53.78V854h-107.58V582.76a53.78 53.78 0 0 1 53.78-53.78zM587.22 318a53.78 53.78 0 0 1 53.78 53.78V854h-107.56V371.78A53.78 53.78 0 0 1 587.22 318zM757.08 479.26a53.78 53.78 0 0 1 53.78 53.78V854h-107.58V533.06a53.78 53.78 0 0 1 53.78-53.78z" fill="#20C997" p-id="1349"></path><path d="M122 817.48m46.26 0l667.48 0q46.26 0 46.26 46.26l0 0q0 46.26-46.26 46.26l-667.48 0q-46.26 0-46.26-46.26l0 0q0-46.26 46.26-46.26Z" fill="#868E96" p-id="1350"></path><path d="M802 158a108 108 0 0 1 108 108 108 108 0 0 1-108 108h-99a9 9 0 0 1-9-9V266a108 108 0 0 1 108-108z" fill="#329AF0" p-id="1351"></path><path d="M858 228.36l-34.4 9.24a5.08 5.08 0 0 0-2.26 8.5l7.02 7.04-26.2 26.1-15.12-15.36a6.62 6.62 0 0 0-9.4 0l-36 35.76a6.68 6.68 0 0 0 0 9.42 6.62 6.62 0 0 0 9.4 0L782.28 278l15.14 15.38a6.64 6.64 0 0 0 4.7 2 6.64 6.64 0 0 0 4.68-2l30.96-30.84 8.76 8.78a5.06 5.06 0 0 0 8.46-2.28l9.22-34.5a5.06 5.06 0 0 0-6.2-6.18z" fill="#FFFFFF" p-id="1352"></path><path d="M439.54 336.4A150 150 0 1 0 380 398.54l68.44 8.56z" fill="#FF6B6B" p-id="1353"></path><path d="M383.02 251.48h-147.54a11.38 11.38 0 0 1 0-22.76h147.54a11.38 11.38 0 0 1 0 22.76zM334.26 313.78h-98.78a11.38 11.38 0 0 1 0-22.76h98.78a11.38 11.38 0 1 1 0 22.76z" fill="#FFFFFF" p-id="1354"></path></svg>