<?xml version="1.0" standalone="no"?><!DOCTYPE svg PUBLIC "-//W3C//DTD SVG 1.1//EN" "http://www.w3.org/Graphics/SVG/1.1/DTD/svg11.dtd"><svg t="1637221371325" class="icon" viewBox="0 0 1024 1024" version="1.1" xmlns="http://www.w3.org/2000/svg" p-id="1248" xmlns:xlink="http://www.w3.org/1999/xlink" width="32" height="32"><defs><style type="text/css"></style></defs><path d="M256 224h512v64H256zM256 0h512v64H256zM256 960h512v64H256zM256 1024a224 224 0 0 1-224-224h64a160 160 0 0 0 160 160zM768 1024v-64a160 160 0 0 0 160-160h64a224 224 0 0 1-224 224zM352 192a96 96 0 0 1-96-96h64a32 32 0 0 0 32 32zM672 192V128a32 32 0 0 0 32-32h64a96 96 0 0 1-96 96zM448 224h-64a32 32 0 0 0-32-32V128a96 96 0 0 1 96 96zM640 224h-64a96 96 0 0 1 96-96v64a32 32 0 0 0-32 32z" fill="#f25c12" p-id="1249"></path><path d="M448 480h-64v-39.68l99.52-198.72 56.96 28.8L448 455.68V480z" fill="#f25c12" p-id="1250"></path><path d="M640 480h-64v-24.32l-92.48-185.28 56.96-28.8L640 440.32V480zM32 736h64v64H32zM928 736h64v64h-64zM105.376 553.216l319.936-319.968 45.28 45.248-319.968 319.968z" fill="#f25c12" p-id="1251"></path><path d="M96 736H32a256 256 0 0 1 74.88-181.12l45.44 45.44A189.76 189.76 0 0 0 96 736zM553.344 278.528l45.28-45.248 319.936 319.936-45.248 45.248zM992 736h-64a189.76 189.76 0 0 0-56.32-135.68l45.44-45.44A256 256 0 0 1 992 736zM704 32h64v64h-64zM256 32h64v64H256zM589.12 864h-154.24l-41.6-41.28 45.44-45.44 22.4 22.72h101.76l13.12-13.12v-37.76l-13.12-13.12h-128L384 685.12v-90.24L434.88 544h154.24L640 594.88V640h-64v-18.88l-13.12-13.12h-101.76l-13.12 13.12v37.76l13.12 13.12h128L640 722.88v90.24L589.12 864z" fill="#f25c12" p-id="1252"></path><path d="M480 512h64v64h-64zM480 832h64v64h-64z" fill="#f25c12" p-id="1253"></path></svg>