<?xml version="1.0" standalone="no"?><!DOCTYPE svg PUBLIC "-//W3C//DTD SVG 1.1//EN" "http://www.w3.org/Graphics/SVG/1.1/DTD/svg11.dtd"><svg t="1625903829016" class="icon" viewBox="0 0 1024 1024" version="1.1" xmlns="http://www.w3.org/2000/svg" p-id="1549" xmlns:xlink="http://www.w3.org/1999/xlink" width="32" height="32"><defs><style type="text/css"></style></defs><path d="M478.8 1024h-13.2v-10.4h13.2v10.4z m0-24h-13.2v-13.2h13.2v13.2z m0-26.8h-13.2V960h13.2v13.2z m0-26.8h-13.2v-13.2h13.2v13.2z m0-26.8h-13.2v-13.2h13.2v13.2z m0-26.8h-13.2v-13.2h13.2v13.2z m0-26.8h-13.2v-13.2h13.2v13.2z m0-26.8h-13.2v-13.2h13.2v13.2z m0-26.8h-13.2v-13.2h13.2v13.2z m0-26.8h-13.2v-13.2h13.2v13.2z m0-26.8h-13.2v-13.2h13.2v13.2zM287.6 1014h-13.2v-13.2h13.2v13.2z m0-26.8h-13.2v-13.2h13.2v13.2z m0-26.8h-13.2v-13.2h13.2v13.2z m0-26.8h-13.2V920h13.2v13.6z m0-26.8h-13.2v-13.2h13.2v13.2z m0-26.8h-13.2v-13.2h13.2v13.2z m0-26.8h-13.2V840h13.2v13.2z m0-26.8h-13.2v-13.2h13.2v13.2z m0-26.8h-13.2v-13.2h13.2v13.2z m0-26.8h-13.2v-13.2h13.2v13.2z m0-26.8h-13.2v-13.2h13.2v13.2z m0-26.8h-13.2v-13.2h13.2v13.2z m0-26.8h-13.2v-13.2h13.2v13.2z m0-26.8h-13.2v-13.2h13.2v13.2zM670.4 1024h-13.2v-11.2h13.2v11.2z m0-24.4h-13.2v-13.2h13.2v13.2z m0-26.8h-13.2v-13.2h13.2v13.2z m0-26.8h-13.2v-13.2h13.2v13.2z m0-26.8h-13.2v-13.2h13.2v13.2z m0-26.8h-13.2v-13.2h13.2v13.2z m0-26.8h-13.2V852h13.2v13.6z m0-26.8h-13.2v-13.2h13.2v13.2z m0-26.8h-13.2v-13.2h13.2v13.2z m0-26.8h-13.2V772h13.2v13.2z m0-26.8h-13.2v-13.2h13.2v13.2z m0-26.8h-13.2v-13.2h13.2v13.2z m0-26.8h-13.2v-13.2h13.2v13.2z m0-26.8h-13.2v-13.2h13.2v13.2z m0-26.8h-13.2v-13.2h13.2v13.2z m0-26.8h-13.2v-13.2h13.2v13.2z m0-26.8h-13.2v-13.2h13.2v13.2z m0-26.8h-13.2v-13.2h13.2v13.2z m0-26.8h-13.2v-13.2h13.2v13.2z m0-26.8h-13.2V504h13.2v13.2z m0-26.8h-13.2v-13.2h13.2v13.2zM861.6 1018h-13.2v-13.2h13.2v13.2z m0-26.8h-13.2v-13.2h13.2v13.2z m0-26.8h-13.2v-13.2h13.2v13.2z m0-26.8h-13.2V924h13.2v13.6z m0-26.8h-13.2v-13.2h13.2v13.2z m0-26.8h-13.2v-13.2h13.2v13.2z m0-26.8h-13.2V844h13.2v13.2z m0-26.8h-13.2v-13.2h13.2v13.2z m0-26.8h-13.2v-13.2h13.2v13.2z m0-26.8h-13.2v-13.2h13.2v13.2z m0-26.8h-13.2v-13.2h13.2v13.2z m0-26.8h-13.2v-13.2h13.2v13.2z m0-26.8h-13.2v-13.2h13.2v13.2z m0-26.8h-13.2V656h13.2v13.6z m0-26.8h-13.2v-13.2h13.2v13.2z" fill="#4A555F" p-id="1550"></path><path d="M3.2 924h1010.4v13.2H3.2zM79.2 838.8v-156.8l70.8-32.4 129.2-147.6 190.8 93.2 192.4-269.6 193.2 153.6 165.6-112.4v158.4l-166 112.8-189.6-151.2-190.8 267.2-192-93.6-124.4 142-79.2 36.4z m13.2-148.4v127.6l57.6-26.4L279.2 644l190.8 93.2 192.4-269.6 193.2 153.6 152-103.2V392l-152.8 103.6-189.6-151.2-190.8 267.6-192-93.6-124.4 142-65.6 30z" fill="#4A555F" p-id="1551"></path><path d="M989.2 424.4v86l-132.8 90-198-157.6-194.8 273.2-189.6-92.4-136.4 155.6-52 24v-92l85.2-38.8 116.8-133.6 193.2 94.4 188.4-264 184.4 146.8z" fill="#F68F6F" p-id="1552"></path><path d="M79.2 0h13.2v1024h-13.2zM430.8 286.4H282L269.2 160H186.4L356.4 22.8 526.4 160H444l-13.2 126.4z m-136.8-13.2h124.8l12.8-126.8h56.8L356.4 40l-132 106.8h56.8l12.8 126.4z" fill="#4A555F" p-id="1553"></path><path d="M308.4 257.6l-13.2-126.8h-26.4L356.4 60l88 70.8h-26.8l-12.8 126.8z" fill="#FFD552" p-id="1554"></path><path d="M426.8 337.6H286.4l-3.6-34h147.2l-3.2 34zM298.4 324h116l0.8-7.2H297.6l0.8 7.2zM288 350.8h137.6V364H288z" fill="#4A555F" p-id="1555"></path></svg>