<?xml version="1.0" standalone="no"?><!DOCTYPE svg PUBLIC "-//W3C//DTD SVG 1.1//EN" "http://www.w3.org/Graphics/SVG/1.1/DTD/svg11.dtd"><svg t="1640309241757" class="icon" viewBox="0 0 1024 1024" version="1.1" xmlns="http://www.w3.org/2000/svg" p-id="1933" xmlns:xlink="http://www.w3.org/1999/xlink" width="64" height="64"><defs><style type="text/css"></style></defs><path d="M263.447158 641.049372l0 318.685624c0 27.89974 22.614869 50.521907 50.524339 50.521907l27.467949 0c27.903389 0 50.525556-22.622167 50.525556-50.521907L391.965002 697.286724l-101.287076-101.065707C274.499775 604.64397 263.447158 621.551908 263.447158 641.049372zM604.585882 499.221437l-105.586735 105.347121 0 355.166437c0 27.89974 22.622167 50.521907 50.524339 50.521907l27.112787 0c27.89974 0 50.521907-22.622167 50.521907-50.521907L627.15818 541.309444C627.159396 523.745915 618.190319 508.276872 604.585882 499.221437zM28.245467 406.410833l0 553.324163c0 27.89974 22.614869 50.521907 50.524339 50.521907L106.240188 1010.256903c27.900956 0 50.523123-22.622167 50.523123-50.521907l0-497.130599L55.511508 361.560584C39.313896 369.977455 28.245467 386.89634 28.245467 406.410833zM991.162332 425.824371c-0.321106-20.511867-24.546371-30.773883-44.799164-10.570958l-65.686871 65.548212L657.601226 250.707223c-4.337365-4.478457-9.781572-7.21394-15.481205-8.247804l-4.724152-4.864027c-10.965043-11.275202-29.023611-11.557386-40.335303-0.604507L397.061345 430.557037 75.579422 112.876086c-11.141408-11.001532-29.079561-10.956529-40.173533 0.051085l0 100.432009 344.829011 340.753153c11.186412 11.053834 29.24498 10.954096 40.326789-0.197042l30.104912-30.343309c3.791241-3.814351 6.243324-8.438765 7.423146-13.308874l160.388839-155.243844 190.912162 196.915873-63.322363 63.187352c-20.254009 20.204141-10.263232 44.677533 10.311884 44.973096l193.831308 4.316687c20.550789 0.321106 45.861003-24.941672 45.539897-45.44016L991.162332 425.824371zM804.683624 746.932887 784.726394 746.932887c-27.902172 0-50.524339 22.622167-50.524339 50.524339l0 162.27777c0 27.89974 22.622167 50.521907 50.524339 50.521907l19.95723 0c27.89974 0 50.524339-22.622167 50.524339-50.521907L855.207963 797.457226C855.207963 769.555054 832.58458 746.932887 804.683624 746.932887z" p-id="1934" fill="#1afa29"></path></svg>